<svg width="26" height="26" viewBox="0 0 26 26" fill="none" xmlns="http://www.w3.org/2000/svg">
<path d="M4.68104 23.7802C5.17744 23.996 5.72625 24.0546 6.25588 23.9484C6.78551 23.8421 7.27137 23.576 7.65008 23.1846L13 17.7715L18.3499 23.1846C18.5994 23.4421 18.8965 23.6467 19.2242 23.7865C19.5519 23.9264 19.9036 23.9987 20.259 23.9994C20.6242 23.9983 20.9857 23.9238 21.3226 23.7802C21.823 23.5741 22.2508 23.2194 22.55 22.7622C22.8492 22.305 23.006 21.7667 22.9998 21.2174V6.62425C22.9984 5.39827 22.519 4.22293 21.6669 3.35603C20.8148 2.48914 19.6595 2.00147 18.4544 2L7.54554 2C6.34047 2.00147 5.18517 2.48914 4.33306 3.35603C3.48095 4.22293 3.0016 5.39827 3.00016 6.62425V21.2174C2.99429 21.7671 3.15159 22.3057 3.45148 22.763C3.75137 23.2202 4.1799 23.5747 4.68104 23.7802Z" fill="#2b9e76"/>
</svg>
