<svg width="24" height="24" viewBox="0 0 24 24" fill="none" xmlns="http://www.w3.org/2000/svg">
<g clipPath="url(#clip0_36_1171)">
<g clipPath="url(#clip1_36_1171)">
<path d="M12 16H7V8H12V16ZM5 8H0V16H5V8ZM12 5V2C12 0.895 11.105 0 10 0H9C7.895 0 7 0.895 7 2V5H12ZM7 19V22C7 23.105 7.895 24 9 24H10C11.105 24 12 23.105 12 22V19H7ZM0 19V22C0 23.105 0.895 24 2 24H3C4.105 24 5 23.105 5 22V19H0ZM5 5V2C5 0.895 4.105 0 3 0H2C0.895 0 0 0.895 0 2V5H5ZM19.122 7.237L14.36 8.761L16.99 16.949L21.752 15.425L19.122 7.237ZM18.207 4.38L17.215 1.391C16.878 0.339 15.752 -0.241 14.7 0.096L13.748 0.401C12.696 0.738 12.116 1.864 12.453 2.916L13.445 5.905L18.207 4.381V4.38ZM17.904 19.806L18.743 22.609C19.08 23.661 20.206 24.241 21.258 23.904L22.21 23.599C23.262 23.262 23.842 22.136 23.505 21.084L22.666 18.281L17.904 19.805V19.806Z" fill="white"/>
</g>
</g>
<defs>
<clipPath id="clip0_36_1171">
<rect width="24" height="24" fill="white"/>
</clipPath>
<clipPath id="clip1_36_1171">
<rect width="24" height="24" fill="white"/>
</clipPath>
</defs>
</svg>
