<svg width="30" height="30" viewBox="0 0 40 40" fill="none" xmlns="http://www.w3.org/2000/svg">
<path d="M37.7356 8.7519H36.9469V8.17565C36.9469 7.34878 36.5063 6.59503 35.7969 6.20815C31.055 3.62253 24.6956 4.5419 20 8.39065C15.3038 4.5419 8.9425 3.62378 4.20312 6.20815C3.49312 6.59503 3.0525 7.34878 3.0525 8.17628V8.75253H2.26437C1.01562 8.7519 0 9.76753 0 11.0163V32.9888C0 34.2375 1.01562 35.2531 2.26437 35.2531H20H20.0006C20.1537 35.2531 20.3075 35.2219 20.4531 35.1588C20.5725 35.1063 20.675 35.0313 20.7669 34.9456C20.7675 34.9475 20.7687 34.9488 20.7694 34.9513C24.4937 31.5 29.7362 30.3138 33.8119 32.0031C34.5175 32.2957 35.3162 32.2163 35.9475 31.795C36.5731 31.3763 36.9469 30.6756 36.9469 29.9206V11.0163H37.7356V32.9888H24.8688C24.2438 32.9888 23.7369 33.4956 23.7369 34.1206C23.7369 34.7456 24.2438 35.2525 24.8688 35.2525H37.7356C38.9844 35.2525 40 34.2369 40 32.9881V11.0163C40 9.76753 38.9844 8.7519 37.7356 8.7519ZM2.26437 11.0163H4.185C4.81063 11.0163 5.31687 10.5094 5.31687 9.8844L5.28687 8.1969C9.32625 5.99253 14.8462 6.90315 18.8681 10.39V31.7644C14.7025 28.885 9.59875 28.1388 5.31687 29.9213V13.7338C5.31687 13.1082 4.81 12.6019 4.185 12.6019C3.56 12.6019 3.05313 13.1088 3.05313 13.7338V29.9213C3.05313 30.6769 3.42688 31.3769 4.05312 31.7956C4.68563 32.2181 5.48438 32.2956 6.18937 32.0025C9.35437 30.6906 13.2188 31.1194 16.5325 32.9894H2.26437V11.0163ZM34.6781 29.9106C30.4 28.1363 25.2975 28.8894 21.1325 31.7694V10.4013C25.155 6.9119 30.6706 5.99128 34.6838 8.17628L34.6781 29.9106Z" fill="#2b9e76"/>
</svg>
